# xmcd CD database file
# Copyright (C) 1995-1998 Ti Kan
#
# Track frame offsets:
#	150
#	17094
#	33619
#	54989
#	75047
#	95479
#	115570
#	132036
#	152568
#	169354
#	183152
#	199127
#	216851
#	233292
#	248875
#	264587
#	282615
#
# Disc length: 4014 seconds
#
# Revision: 1
# Processed by: cddbd v1.5.1PL0 Copyright (c) Steve Scherf et al.
# Submitted via: CDex 1.30Release
#
DISCID=d90fac11
DTITLE=peter pan - terbaik
DYEAR=2005
DGENRE=Country
TTITLE0=menunggu mu
TTITLE1=mimpi yang sempurna
TTITLE2=ada apa denganmu
TTITLE3=semua tentang kita
TTITLE4=mungkin nanti
TTITLE5=topeng
TTITLE6=aku dan bintang
TTITLE7=sahabat
TTITLE8=2 DSD
TTITLE9=aku
TTITLE10=taman langit
TTITLE11=dan hilang
TTITLE12=diatas normal
TTITLE13=khayalan tingkat tinggi
TTITLE14=kita tertawa
TTITLE15=masa lalu tertinggal
TTITLE16=tertinggalkan waktu
EXTD=YEAR: 2005 ID3G:   2
EXTT0=
EXTT1=
EXTT2=
EXTT3=
EXTT4=
EXTT5=
EXTT6=
EXTT7=
EXTT8=
EXTT9=
EXTT10=
EXTT11=
EXTT12=
EXTT13=
EXTT14=
EXTT15=
EXTT16=
PLAYORDER=
